# xmcd CD database file
# Copyright (C) 1993-1998 Ti Kan
# 
# Track frame offsets:
#     150
#     10110
#     21170
#     36200
#     47397
#     62452
#     77460
#     95812
#     109550
#     124040
# 
# Disc length: 1846 seconds
# 
# Revision: 1
# Processed by: cddbd v1.4b41PL1 Copyright (c) Steve Scherf et al.
# Submitted via: DiscPlay 4.0.4
# 
DISCID=6c07340a
DTITLE=Barbara Mandrell - Key's In The Mailbox
DYEAR=1900
DGENRE=
TTITLE0=The Key's In The Mailbox
TTITLE1=Tall Drink Of Water
TTITLE2=You're All I've Got To Lose
TTITLE3=Before I'm Ever Over You
TTITLE4=When A Man Loves A Woman
TTITLE5=This Rock
TTITLE6=Try Gettin' Over You
TTITLE7=The Way I Feel Right Now
TTITLE8=I Love You Because
TTITLE9=Road To Your Heart
EXTD=
EXTT0=
EXTT1=
EXTT2=
EXTT3=
EXTT4=
EXTT5=
EXTT6=
EXTT7=
EXTT8=
EXTT9=
PLAYORDER=
